<svg width="278" height="237" viewBox="0 0 278 237" fill="none" xmlns="http://www.w3.org/2000/svg">
<path d="M139 237C198.538 237 246.803 234.176 246.803 230.692C246.803 227.208 198.538 224.383 139 224.383C79.4621 224.383 31.1972 227.208 31.1972 230.692C31.1972 234.176 79.4621 237 139 237Z" fill="#FAFAFA"/>
<path d="M278 198.458H0V198.598H278V198.458Z" fill="#EBEBEB"/>
<path d="M235.499 204.304H205.992V204.444H235.499V204.304Z" fill="#F5F5F5"/>
<path d="M184.158 206.795H151.543V206.935H184.158V206.795Z" fill="#F5F5F5"/>
<path d="M200.221 206.795H189.552V206.935H200.221V206.795Z" fill="#F5F5F5"/>
<path d="M79.875 204.304H55.8613V204.444H79.875V204.304Z" fill="#F5F5F5"/>
<path d="M52.7644 203.19H44.1797V203.329H52.7644V203.19Z" fill="#F5F5F5"/>
<path d="M103.233 206.656H73.0973V206.795H103.233V206.656Z" fill="#F5F5F5"/>
<path d="M132.55 162.497H25.1924C23.441 162.492 22.0232 161.071 22.0232 159.315V8.0527C22.0398 6.30842 23.4521 4.90407 25.1924 4.8985H132.55C134.302 4.8985 135.725 6.32513 135.725 8.08057V159.315C135.72 161.076 134.302 162.497 132.55 162.497ZM25.1924 5.00995C23.5188 5.01553 22.1622 6.37529 22.1622 8.0527V159.315C22.1622 160.993 23.5188 162.352 25.1924 162.358H132.55C134.224 162.352 135.581 160.993 135.586 159.315V8.0527C135.581 6.37529 134.224 5.01553 132.55 5.00995H25.1924Z" fill="#EBEBEB"/>
<path d="M252.813 162.497H145.45C143.698 162.492 142.28 161.071 142.275 159.315V8.0527C142.292 6.30842 143.709 4.90407 145.45 4.8985H252.813C254.553 4.90407 255.96 6.30842 255.977 8.0527V159.315C255.977 161.071 254.565 162.492 252.813 162.497ZM145.455 5.00995C143.782 5.01553 142.425 6.37529 142.419 8.0527V159.315C142.425 160.993 143.782 162.352 145.455 162.358H252.819C254.492 162.352 255.849 160.993 255.855 159.315V8.0527C255.849 6.37529 254.492 5.01553 252.819 5.00995H145.455Z" fill="#EBEBEB"/>
<path d="M43.6126 92.6423H39.6261L38.5197 91.1934H44.7191L43.6126 92.6423Z" fill="#F0F0F0"/>
<path d="M49.7342 74.8762C49.7287 77.2836 48.6723 79.4459 47.0098 80.9338C45.8645 81.9536 45.1583 83.3747 45.1583 84.9128V85.5313H38.0749V84.9128C38.0749 83.3802 37.3688 81.9536 36.229 80.9338C34.5554 79.4459 33.5046 77.2725 33.5046 74.8483C33.5046 70.2117 37.3688 66.4835 42.0447 66.7232C46.3204 66.9461 49.7398 70.5851 49.7342 74.8762Z" fill="#F0F0F0"/>
<path d="M38.7609 77.0834L38.2815 77.1815L39.9851 85.5465L40.4645 85.4485L38.7609 77.0834Z" fill="white"/>
<path d="M44.4776 77.0826L42.7808 85.4494L43.2603 85.5471L44.9571 77.1803L44.4776 77.0826Z" fill="white"/>
<path d="M42.6007 80.7666L41.6222 78.9889L40.6325 80.7666L38.7921 78.6433L39.1591 78.3201L40.5491 79.9195L41.6222 77.9746L42.6953 79.9195L44.0797 78.3201L44.4467 78.6433L42.6007 80.7666Z" fill="white"/>
<path d="M45.1639 85.4924V91.1543L38.0749 91.1933V85.5314L45.1639 85.4924Z" fill="#F0F0F0"/>
<path d="M45.1576 90.9126L38.0742 90.9545L38.0771 91.4449L45.1605 91.403L45.1576 90.9126Z" fill="white"/>
<path d="M45.1577 85.2505L38.0742 85.2924L38.0771 85.7828L45.1606 85.7409L45.1577 85.2505Z" fill="white"/>
<path d="M213.104 221.965H184.258L193.538 230.402H223.284L213.104 221.965Z" fill="#EBEBEB"/>
<path d="M180.411 234.743L159.005 223.274L176.852 216.709L197.586 226.969L180.411 234.743Z" fill="white"/>
<path d="M162.891 219.357H188.629L180.845 229.003H152.316L162.891 219.357Z" fill="#FBC6EA"/>
<path d="M233.431 35.2146C239.434 35.2146 244.301 30.3368 244.301 24.3198C244.301 18.3027 239.434 13.4249 233.431 13.4249C227.428 13.4249 222.561 18.3027 222.561 24.3198C222.561 30.3368 227.428 35.2146 233.431 35.2146Z" fill="#F0F0F0"/>
<path d="M233.459 35.4597C227.332 35.4597 222.344 30.4609 222.344 24.3197C222.344 18.1785 227.332 13.1797 233.459 13.1797V13.6701C227.599 13.6701 222.834 18.446 222.834 24.3197C222.834 30.1934 227.599 34.9693 233.459 34.9693V35.4597Z" fill="white"/>
<path d="M233.459 35.4597V34.9693C239.319 34.9693 244.084 30.1934 244.084 24.3197C244.084 18.446 239.319 13.6701 233.459 13.6701V13.1797C239.586 13.1797 244.573 18.1785 244.573 24.3197C244.573 30.4609 239.586 35.4597 233.459 35.4597Z" fill="white"/>
<path d="M239.141 24.3197H238.652C238.652 20.7085 236.823 15.8769 233.331 13.6311L233.592 13.2187C237.234 15.5648 239.141 20.5804 239.141 24.3197Z" fill="white"/>
<path d="M233.592 35.0919L233.331 34.6795C236.823 32.4337 238.652 27.6021 238.652 23.9909H239.141C239.141 27.7358 237.234 32.7458 233.592 35.0919Z" fill="white"/>
<path d="M228.272 24.3206H227.783C227.783 20.5756 229.69 15.5601 233.332 13.2195L233.599 13.6319C230.102 15.8778 228.272 20.7094 228.272 24.3206Z" fill="white"/>
<path d="M233.325 35.0864C229.684 32.7459 227.776 27.7303 227.776 23.9854H228.266C228.266 27.5966 230.095 32.4282 233.587 34.674L233.325 35.0864Z" fill="white"/>
<path d="M233.703 13.4249H233.214V35.2146H233.703V13.4249Z" fill="white"/>
<path d="M242.655 18.2732H224.257V18.7636H242.655V18.2732Z" fill="white"/>
<path d="M244.323 24.2584H222.595V24.7488H244.323V24.2584Z" fill="white"/>
<path d="M242.416 30.2436H224.502V30.734H242.416V30.2436Z" fill="white"/>
<path d="M203.201 84.0768C203.201 77.5789 202.245 71.2984 200.444 65.3968L216.796 50.98L206.498 33.1024L185.86 40.0963C177.32 30.9625 166.161 24.3253 153.578 21.3995L149.297 0H128.703L124.433 21.3995C111.851 24.3308 100.675 30.9625 92.1348 40.0963L71.5016 33.1024L61.2045 50.98L77.5564 65.3968C75.7717 71.2984 74.7987 77.5845 74.7987 84.0768C74.7987 90.5858 75.7661 96.8552 77.5564 102.774L61.2045 117.174L71.5016 135.051L92.1403 128.057C100.68 137.191 111.856 143.823 124.438 146.771L128.708 168.17H149.303L153.589 146.771C166.172 143.828 177.331 137.197 185.871 128.057L206.51 135.051L216.807 117.174L200.455 102.774C202.245 96.8552 203.201 90.5858 203.201 84.0768ZM139 118.818C120.574 118.818 105.646 103.838 105.646 85.3697C105.646 66.9015 120.574 51.9218 139 51.9218C157.426 51.9218 172.371 66.9015 172.371 85.3697C172.371 103.838 157.426 118.818 139 118.818Z" fill="#FBC6EA"/>
<path d="M236.411 161.31C234.699 160.368 236.8 152.455 234.493 148.994C232.803 146.464 229.728 144.926 228.599 142.095C227.654 139.727 228.244 136.818 230.039 135.007C230.206 134.834 230.395 134.672 230.618 134.589C230.862 134.499 231.135 134.522 231.396 134.55C232.903 134.695 234.46 134.945 235.705 135.804C237.24 136.857 238.09 138.696 238.363 140.54C238.624 142.385 238.224 162.313 236.411 161.31Z" fill="#F0F0F0"/>
<path d="M237.212 150.176C237.206 149.975 237.195 149.78 237.19 149.579C237.151 149.897 237.123 150.22 237.123 150.538L237.212 150.176Z" fill="#F0F0F0"/>
<path d="M242.65 137.007C242.555 136.89 242.444 136.779 242.31 136.712C242.16 136.645 241.988 136.639 241.827 136.645C240.87 136.651 239.881 136.723 239.047 137.191C238.024 137.765 237.384 138.874 237.112 140.022C236.839 141.165 236.889 142.363 236.934 143.539C237.017 145.556 237.101 147.568 237.184 149.585C237.379 148.092 238.035 146.654 239.069 145.556C240.387 144.157 242.294 143.266 243.161 141.544C243.889 140.106 243.678 138.244 242.65 137.007Z" fill="#F0F0F0"/>
<path d="M239.814 173.531C239.814 173.431 239.808 173.342 239.803 173.242C239.352 167.084 238.207 155.698 232.708 150.215C231.568 149.078 229.65 148.259 227.999 148.799C227.371 149.006 226.865 149.401 226.442 149.83C224.646 151.647 224.118 154.093 224.185 156.417C224.274 159.243 225.163 162.046 226.765 164.559C228.961 167.998 232.408 170.79 235.216 173.921C238.024 177.053 234.988 185.931 239.514 184.683C239.925 184.565 239.825 174.847 239.814 173.531Z" fill="#F0F0F0"/>
<path d="M237.012 177.917C237.134 172.289 237.251 166.655 237.373 161.026C237.484 155.81 237.812 150.114 242.049 146.119C243.128 145.104 244.757 144.179 246.297 144.603C246.881 144.765 247.364 145.099 247.77 145.472C249.505 147.049 250.1 149.267 250.144 151.402C250.194 153.993 249.511 156.607 248.16 158.981C246.308 162.235 243.283 164.949 240.854 167.953C238.424 170.957 241.621 178.948 237.423 178.017C237.012 177.917 237.012 177.917 237.012 177.917Z" fill="#F0F0F0"/>
<path d="M243.978 199.239C240.064 200.481 235.861 200.481 231.941 199.239L227.232 177.733H248.688L243.978 199.239Z" fill="#F5F5F5"/>
<path d="M247.715 181.428H228.149V181.874H247.715V181.428Z" fill="white"/>
<path d="M211.969 150.298H180.011C176.98 150.298 174.734 147.835 175.001 144.798L181.084 75.0879C181.351 72.0507 184.019 69.5875 187.055 69.5875H219.014C222.044 69.5875 224.29 72.0507 224.024 75.0879L217.941 144.798C217.674 147.835 215 150.298 211.969 150.298Z" fill="#9DDBFF"/>
<path opacity="0.1" d="M211.969 150.298H180.011C176.98 150.298 174.734 147.835 175.001 144.798L181.084 75.0879C181.351 72.0507 184.019 69.5875 187.055 69.5875H219.014C222.044 69.5875 224.29 72.0507 224.024 75.0879L217.941 144.798C217.674 147.835 215 150.298 211.969 150.298Z" fill="black"/>
<path opacity="0.8" d="M198.959 145.16C198.831 146.604 197.564 147.779 196.118 147.779C194.678 147.779 193.61 146.609 193.733 145.16C193.861 143.717 195.128 142.541 196.574 142.541C198.019 142.541 199.087 143.717 198.959 145.16Z" stroke="white" stroke-width="0.5" stroke-miterlimit="10"/>
<path opacity="0.8" d="M207.688 75.8179H197.341C196.802 75.8179 196.407 75.3832 196.451 74.8427L196.474 74.603C196.518 74.0625 196.996 73.6278 197.53 73.6278H207.877C208.417 73.6278 208.811 74.0625 208.767 74.603L208.745 74.8427C208.7 75.3832 208.222 75.8179 207.688 75.8179Z" stroke="white" stroke-width="0.5" stroke-miterlimit="10"/>
<path opacity="0.4" d="M215.183 138.685H178.37L183.563 79.2173H220.371L215.183 138.685Z" fill="white"/>
<path opacity="0.1" d="M205.626 69.8383L187.8 150.298H198.514L216.162 69.8383H205.626Z" fill="white"/>
<path opacity="0.1" d="M197.291 69.8383L179.466 150.298H184.864L202.512 69.8383H197.291Z" fill="white"/>
<path d="M190.074 135.469H180.972L181.517 129.166H190.619L190.074 135.469Z" fill="#9DDBFF"/>
<path d="M201.617 135.469H192.515L193.065 129.166H202.167L201.617 135.469Z" fill="#9DDBFF"/>
<path d="M213.165 135.469H204.063L204.614 129.166H213.715L213.165 135.469Z" fill="#9DDBFF"/>
<path d="M214.572 119.386H182.374L182.324 119.943H214.521L214.572 119.386Z" fill="#9DDBFF"/>
<path opacity="0.2" d="M214.572 119.386H182.374L182.324 119.943H214.521L214.572 119.386Z" fill="black"/>
<path d="M214.755 117.257H211.786L212.047 114.281H215.016L214.755 117.257Z" fill="#9DDBFF"/>
<path d="M200.154 117.257H197.185L197.447 114.281H200.416L200.154 117.257Z" fill="#9DDBFF"/>
<path d="M185.554 117.257H182.585L182.846 114.281H185.815L185.554 117.257Z" fill="#9DDBFF"/>
<path d="M214.06 125.215H205.614L205.792 123.17H214.238L214.06 125.215Z" fill="#9DDBFF"/>
<path d="M204.052 111.044H183.141L183.324 108.965H204.235L204.052 111.044Z" fill="#9DDBFF"/>
<path opacity="0.2" d="M204.052 111.044H183.141L183.324 108.965H204.235L204.052 111.044Z" fill="white"/>
<path d="M195.184 83.5251H185.543L185.737 81.3182H195.378L195.184 83.5251Z" fill="#9DDBFF"/>
<path opacity="0.2" d="M195.184 83.5251H185.543L185.737 81.3182H195.378L195.184 83.5251Z" fill="white"/>
<path d="M184.336 126.664C182.924 126.664 181.879 125.516 182.001 124.101C182.123 122.685 183.369 121.537 184.781 121.537C186.193 121.537 187.239 122.685 187.116 124.101C186.994 125.516 185.749 126.664 184.336 126.664Z" fill="#9DDBFF"/>
<path d="M215.578 107.293H183.452L185.393 85.0521H217.524L215.578 107.293Z" fill="#9DDBFF"/>
<path opacity="0.3" d="M180.922 76.9213H192.632C195.401 76.9213 197.842 74.6699 198.086 71.8947L198.286 69.5875H187.222C184.097 69.5875 181.345 72.1231 181.073 75.2551L180.922 76.9213Z" fill="black"/>
<path d="M224.492 87.2472L224.298 89.9318L224.853 89.9721L225.047 87.2874L224.492 87.2472Z" fill="#9DDBFF"/>
<path d="M225.227 77.0803L224.665 84.8675L225.219 84.9077L225.782 77.1205L225.227 77.0803Z" fill="#9DDBFF"/>
<path d="M191.509 69.6377H97.2L102.426 9.71344H196.741L191.509 69.6377Z" fill="#9DDBFF"/>
<path d="M190.208 74.3245H97.2722C94.6368 74.3245 92.6852 72.1845 92.9187 69.5374L98.1173 9.9865C98.3453 7.34499 100.675 5.19946 103.31 5.19946H196.246C198.881 5.19946 200.833 7.33942 200.599 9.9865L195.401 69.5374C195.173 72.1845 192.849 74.3245 190.208 74.3245Z" fill="#9DDBFF"/>
<path d="M191.509 69.6377H97.2L102.426 9.71344H196.741L191.509 69.6377Z" fill="#9DDBFF"/>
<path opacity="0.4" d="M191.509 69.6377H97.2L102.426 9.71344H196.741L191.509 69.6377Z" fill="white"/>
<path d="M185.393 27.1006H168.079L168.929 17.337H186.243L185.393 27.1006Z" fill="#9DDBFF"/>
<path d="M183.714 46.3602H166.394L167.25 36.5966H184.564L183.714 46.3602Z" fill="#9DDBFF"/>
<path d="M182.034 65.6197H164.715L165.566 55.8562H182.885L182.034 65.6197Z" fill="#9DDBFF"/>
<path d="M107.669 58.1411L107.619 58.6983H157.598L157.648 58.1411H107.669Z" fill="#9DDBFF"/>
<path opacity="0.2" d="M157.648 58.1411H107.669L107.619 58.6983H157.598L157.648 58.1411Z" fill="black"/>
<path opacity="0.1" d="M114.147 5.23846L95.7265 74.2966H101.92L120.14 5.23846H114.147Z" fill="white"/>
<path opacity="0.1" d="M123.71 5.23846L105.29 74.2966H117.583L135.797 5.23846H123.71Z" fill="white"/>
<path d="M158.204 51.7657H108.287L111.306 17.2088H161.218L158.204 51.7657Z" fill="#9DDBFF"/>
<path d="M109.66 65.3913C108.248 65.3913 107.202 64.2433 107.325 62.8278C107.447 61.4123 108.692 60.2643 110.105 60.2643C111.517 60.2643 112.562 61.4123 112.44 62.8278C112.318 64.2433 111.072 65.3913 109.66 65.3913Z" fill="#9DDBFF"/>
<path d="M132.873 56.0123H107.92L108.109 53.8054H133.067L132.873 56.0123Z" fill="#9DDBFF"/>
<path opacity="0.2" d="M132.873 56.0123H107.92L108.109 53.8054H133.067L132.873 56.0123Z" fill="white"/>
<path d="M157.109 63.9312H147.468L147.662 61.7244H157.304L157.109 63.9312Z" fill="#9DDBFF"/>
<path d="M157.832 56.0122H155.63L155.819 53.8054H158.026L157.832 56.0122Z" fill="#9DDBFF"/>
<path d="M154.095 56.0122H151.894L152.088 53.8054H154.29L154.095 56.0122Z" fill="#9DDBFF"/>
<path d="M150.365 56.0123H148.157L148.352 53.8054H150.554L150.365 56.0123Z" fill="#9DDBFF"/>
<path opacity="0.5" d="M161.407 15.0856H123.971L124.138 13.1797H161.574L161.407 15.0856Z" fill="white"/>
<path d="M121.013 15.2361H111.372L111.561 13.0292H121.208L121.013 15.2361Z" fill="#9DDBFF"/>
<path opacity="0.2" d="M121.013 15.2361H111.372L111.561 13.0292H121.208L121.013 15.2361Z" fill="white"/>
<path d="M186.195 3.3635L186.19 3.92078L188.876 3.94329L188.88 3.38601L186.195 3.3635Z" fill="#9DDBFF"/>
<path d="M176.028 3.2811L176.023 3.83838L183.812 3.90364L183.817 3.34636L176.028 3.2811Z" fill="#9DDBFF"/>
<path d="M156.269 85.8991H159.277L153.745 147.295H150.887L156.269 85.8991Z" fill="#263238"/>
<path opacity="0.2" d="M156.269 85.8991H159.277L153.745 147.295H150.887L156.269 85.8991Z" fill="white"/>
<path d="M155.962 115.416L155.411 115.489L159.331 145.201L159.882 145.128L155.962 115.416Z" fill="#263238"/>
<path d="M152.311 143.99H59.631L64.7017 85.8991H157.381L152.311 143.99Z" fill="#9DDBFF"/>
<path opacity="0.7" d="M152.311 143.99H59.631L64.7017 85.8991H157.381L152.311 143.99Z" fill="white"/>
<path d="M79.9361 150.956H83.7725L90.0442 232.542H87.2698L79.9361 150.956Z" fill="#263238"/>
<path d="M172.115 150.399H175.952L182.223 232.542H179.449L172.115 150.399Z" fill="#263238"/>
<path d="M174.812 150.399H60.3983V163.333H174.812V150.399Z" fill="#9DDBFF"/>
<path opacity="0.3" d="M154.718 150.499L154.273 163.322L174.812 163.333V150.399L154.718 150.499Z" fill="black"/>
<path opacity="0.2" d="M152.978 150.499H60.415V163.433H152.978V150.499Z" fill="black"/>
<path d="M62.9281 150.399H59.0917L58.9749 232.542H61.7438L62.9281 150.399Z" fill="#263238"/>
<path d="M155.107 150.399H151.271L151.154 232.542H153.929L155.107 150.399Z" fill="#263238"/>
<path opacity="0.2" d="M59.0917 150.399L58.9749 232.542H61.7438L62.9281 150.399H59.0917Z" fill="white"/>
<path opacity="0.1" d="M155.107 150.399H151.271L151.154 232.542H153.929L155.107 150.399Z" fill="white"/>
<path d="M55.9002 147.295C55.9002 145.55 56.5508 144.14 57.3458 144.135H177.698C178.493 144.14 179.143 145.55 179.143 147.295C179.143 149.039 178.493 150.449 177.698 150.454H57.3458C56.5452 150.449 55.9002 149.033 55.9002 147.295Z" fill="#263238"/>
<path opacity="0.1" d="M55.9002 147.295C55.9002 145.55 56.5508 144.14 57.3458 144.135H177.698C178.493 144.14 179.143 145.55 179.143 147.295C179.143 149.039 178.493 150.449 177.698 150.454H57.3458C56.5452 150.449 55.9002 149.033 55.9002 147.295Z" fill="white"/>
<path d="M148.079 147.295C148.079 145.55 148.73 144.14 149.525 144.135H177.698C178.493 144.14 179.143 145.55 179.143 147.295C179.143 149.039 178.493 150.449 177.698 150.454H149.525C148.73 150.449 148.079 149.033 148.079 147.295Z" fill="#263238"/>
<path d="M146.406 136.506H118.356L122.309 91.1877H150.365L146.406 136.506Z" fill="white"/>
<path d="M146.662 136.784H118.05L122.053 90.9091H150.665L146.662 136.784ZM118.656 136.227H146.156L150.064 91.4663H122.565L118.656 136.227Z" fill="white"/>
<path d="M127.53 134.483H120.696L121.113 129.668H127.947L127.53 134.483ZM120.997 134.204H127.274L127.646 129.947H121.369L120.997 134.204Z" fill="#FBC6EA"/>
<path d="M135.847 134.483H129.014L129.437 129.668H136.27L135.847 134.483ZM129.314 134.204H135.592L135.964 129.947H129.687L129.314 134.204Z" fill="#FBC6EA"/>
<path d="M144.16 134.483H137.326L137.743 129.668H144.577L144.16 134.483ZM137.632 134.204H143.909L144.282 129.947H138.005L137.632 134.204Z" fill="#FBC6EA"/>
<path d="M145.033 122.825H121.842V123.103H145.033V122.825Z" fill="#FBC6EA"/>
<path d="M137.649 116.332H122.309L122.465 114.56H137.805L137.649 116.332ZM122.609 116.054H137.393L137.499 114.839H122.715L122.609 116.054Z" fill="#FBC6EA"/>
<path d="M144.76 127.656H138.4L138.55 125.906H144.91L144.76 127.656ZM138.7 127.377H144.504L144.61 126.185H138.805L138.7 127.377Z" fill="#FBC6EA"/>
<path d="M145.355 120.807H142.936L143.148 118.383H145.566L145.355 120.807ZM143.242 120.529H145.099L145.261 118.662H143.404L143.242 120.529Z" fill="#FBC6EA"/>
<path d="M134.841 120.807H132.423L132.634 118.383H135.052L134.841 120.807ZM132.723 120.529H134.58L134.741 118.662H132.884L132.723 120.529Z" fill="#FBC6EA"/>
<path d="M124.327 120.807H121.909L122.12 118.383H124.538L124.327 120.807ZM122.209 120.529H124.066L124.227 118.662H122.37L122.209 120.529Z" fill="#FBC6EA"/>
<path d="M131.361 95.4008H124.138L124.299 93.5339H131.522L131.361 95.4008ZM124.438 95.1221H131.105L131.222 93.8125H124.555L124.438 95.1221Z" fill="#FBC6EA"/>
<path d="M123.577 128.141H122.97C122.52 128.141 122.114 127.963 121.82 127.645C121.525 127.322 121.386 126.898 121.425 126.447L121.48 125.839C121.558 124.92 122.376 124.168 123.293 124.168H123.899C124.349 124.168 124.755 124.346 125.05 124.664C125.345 124.987 125.484 125.41 125.445 125.862L125.389 126.469C125.306 127.394 124.494 128.141 123.577 128.141ZM123.287 124.452C122.509 124.452 121.82 125.087 121.753 125.867L121.697 126.475C121.664 126.848 121.781 127.199 122.02 127.461C122.259 127.723 122.592 127.868 122.965 127.868H123.571C124.349 127.868 125.039 127.233 125.106 126.452L125.161 125.845C125.194 125.472 125.078 125.12 124.839 124.859C124.6 124.597 124.266 124.452 123.893 124.452H123.287Z" fill="#FBC6EA"/>
<path d="M146 113.078H122.581L122.592 112.927L124.005 96.7828H147.423L147.412 96.9333L146 113.078ZM122.882 112.799H145.744L147.118 97.0559H124.255L122.882 112.799Z" fill="#FBC6EA"/>
<path d="M124.213 96.8067L124.048 97.0312L145.788 113.05L145.952 112.825L124.213 96.8067Z" fill="#FBC6EA"/>
<path d="M135.77 104.259L122.659 112.816L122.811 113.05L135.922 104.492L135.77 104.259Z" fill="#FBC6EA"/>
<path d="M127.318 134.455L121.158 129.919L121.325 129.696L127.485 134.232L127.318 134.455Z" fill="#FBC6EA"/>
<path d="M127.715 129.693L120.763 134.229L120.915 134.463L127.866 129.926L127.715 129.693Z" fill="#FBC6EA"/>
<path d="M135.636 134.455L129.476 129.919L129.643 129.696L135.803 134.232L135.636 134.455Z" fill="#FBC6EA"/>
<path d="M136.038 129.682L129.087 134.22L129.239 134.454L136.19 129.916L136.038 129.682Z" fill="#FBC6EA"/>
<path d="M143.954 134.455L137.793 129.919L137.96 129.696L144.115 134.232L143.954 134.455Z" fill="#FBC6EA"/>
<path d="M144.356 129.682L137.405 134.22L137.556 134.453L144.507 129.915L144.356 129.682Z" fill="#FBC6EA"/>
<path d="M114.836 126.709H62.9893L66.0806 91.2936H117.928L114.836 126.709Z" fill="white"/>
<path d="M115.086 126.987H62.6834L65.8248 91.015H118.228L115.086 126.987ZM63.295 126.43H114.586L117.627 91.5722H66.3364L63.295 126.43Z" fill="white"/>
<path d="M97.1666 120.406H69.0219V120.685H97.1666V120.406Z" fill="#FBC6EA"/>
<path d="M97.767 115.268H69.3777L69.3888 115.117L71.0957 95.5289H99.4851L99.474 95.6793L97.767 115.268ZM69.6835 114.989H97.5113L99.1848 95.8075H71.357L69.6835 114.989Z" fill="#FBC6EA"/>
<path d="M70.5397 124.608H69.7724C69.45 124.608 69.1608 124.48 68.9496 124.251C68.7383 124.023 68.6382 123.716 68.666 123.393L68.7327 122.624C68.7883 121.972 69.3666 121.437 70.0226 121.437H70.7899C71.1124 121.437 71.4015 121.565 71.6128 121.793C71.8241 122.022 71.9241 122.328 71.8963 122.652L71.8296 123.421C71.7685 124.078 71.1902 124.608 70.5397 124.608ZM70.0282 121.721C69.5167 121.721 69.0608 122.139 69.0163 122.652L68.9496 123.421C68.9273 123.666 69.0052 123.894 69.1608 124.067C69.3165 124.24 69.5334 124.329 69.778 124.329H70.5453C71.0568 124.329 71.5127 123.911 71.5572 123.398L71.6239 122.629C71.6462 122.384 71.5683 122.156 71.4126 121.983C71.257 121.816 71.0401 121.721 70.7955 121.721H70.0282Z" fill="#FBC6EA"/>
<path d="M83.4055 118.773H69.0719L69.2053 117.252H83.539L83.4055 118.773ZM69.3777 118.494H83.1553L83.2388 117.53H69.4611L69.3777 118.494Z" fill="#FBC6EA"/>
<path d="M97.0053 123.789H91.2952L91.4286 122.267H97.1388L97.0053 123.789ZM91.601 123.51H96.7496L96.833 122.546H91.6844L91.601 123.51Z" fill="#FBC6EA"/>
<path d="M97.4612 118.773H95.9434L96.0768 117.252H97.5947L97.4612 118.773ZM96.2436 118.494H97.2055L97.2889 117.53H96.327L96.2436 118.494Z" fill="#FBC6EA"/>
<path d="M95.3596 118.773H93.8417L93.9751 117.252H95.493L95.3596 118.773ZM94.1419 118.494H95.1038L95.1872 117.53H94.2253L94.1419 118.494Z" fill="#FBC6EA"/>
<path d="M93.2523 118.773H91.7344L91.8679 117.252H93.3858L93.2523 118.773ZM92.0402 118.494H93.0021L93.0855 117.53H92.1236L92.0402 118.494Z" fill="#FBC6EA"/>
<path d="M99.6185 94.0521H78.257L78.3738 92.7035H99.7353L99.6185 94.0521ZM78.5628 93.7735H99.3627L99.435 92.9821H78.6351L78.5628 93.7735Z" fill="#FBC6EA"/>
<path d="M76.8725 94.1357H71.1624L71.2959 92.6143H77.006L76.8725 94.1357ZM71.4682 93.857H76.6168L76.7002 92.893H71.5516L71.4682 93.857Z" fill="#FBC6EA"/>
<path d="M113.029 101.932H102.999L103.505 96.1531H113.535L113.029 101.932ZM103.305 101.653H112.779L113.235 96.4317H103.761L103.305 101.653Z" fill="#FBC6EA"/>
<path d="M112.084 112.777H102.054L102.56 106.998H112.59L112.084 112.777ZM102.354 112.498H111.828L112.284 107.276H102.81L102.354 112.498Z" fill="#FBC6EA"/>
<path d="M111.139 123.621H101.109L101.615 117.842H111.645L111.139 123.621ZM101.409 123.343H110.883L111.339 118.121H101.865L101.409 123.343Z" fill="#FBC6EA"/>
<path d="M113.324 96.1661L103.096 101.67L103.227 101.915L113.456 96.4116L113.324 96.1661Z" fill="#FBC6EA"/>
<path d="M112.835 101.915L103.561 96.415L103.7 96.1754L112.974 101.676L112.835 101.915Z" fill="#FBC6EA"/>
<path d="M112.378 107.025L102.142 112.516L102.273 112.762L112.509 107.271L112.378 107.025Z" fill="#FBC6EA"/>
<path d="M102.76 107.02L102.619 107.26L111.893 112.759L112.035 112.519L102.76 107.02Z" fill="#FBC6EA"/>
<path d="M101.097 123.727L101.62 117.753L106.379 120.573L111.428 117.859L111.561 118.104L106.663 120.735L111.089 123.359L110.95 123.599L106.379 120.891L101.097 123.727ZM101.859 118.216L101.42 123.237L106.09 120.729L101.859 118.216Z" fill="#FBC6EA"/>
<path d="M99.2585 95.5568L69.4485 115.01L69.6001 115.244L99.4102 95.7903L99.2585 95.5568Z" fill="#FBC6EA"/>
<path d="M71.3103 95.5569L71.1456 95.7814L97.5534 115.239L97.718 115.015L71.3103 95.5569Z" fill="#FBC6EA"/>
<path d="M101.531 214.196L100.92 227.777C100.92 227.777 105.901 229.332 106.413 227.27C106.73 225.999 107.675 221.569 108.526 218.125C108.848 216.815 108.531 215.55 107.853 215.065C106.73 214.246 104.867 214.263 101.531 214.196Z" fill="#FF8B7B"/>
<path d="M70.4341 213.499L65.2355 223.781C65.2355 223.781 68.199 227.537 69.4388 226.033C71.1235 223.982 76.5501 217.295 76.5501 217.295C76.5501 217.295 78.4405 217.54 70.4341 213.499Z" fill="#FF8B7B"/>
<path opacity="0.2" d="M67.9765 218.353L73.7256 220.772L76.0385 217.924L69.4332 215.472L67.9765 218.353Z" fill="black"/>
<path opacity="0.2" d="M101.309 219.195L101.164 222.327H107.53L108.309 219.195H101.309Z" fill="black"/>
<path d="M68.2657 134.332L70.7343 137.219L73.7145 135.023C73.7145 135.023 72.7248 130.704 72.2689 131.011C71.8129 131.323 68.2657 133.73 68.2657 133.73V134.332Z" fill="#FF8B7B"/>
<path opacity="0.2" d="M68.2657 134.332L70.7343 137.219L73.7145 135.023C73.7145 135.023 72.7248 130.704 72.2689 131.011C71.8129 131.323 68.2657 133.73 68.2657 133.73V134.332Z" fill="black"/>
<path d="M70.6398 97.067L59.7422 106.909C58.3466 108.469 58.0797 110.743 59.0805 112.582C61.7938 117.58 68.2601 127.678 68.2601 127.678L71.4293 125.394C71.4293 125.394 67.6263 114.12 66.0695 111.762C65.9749 111.623 66.0083 111.439 66.1362 111.333L75.3547 103.721L70.6398 97.067Z" fill="#FF8B7B"/>
<g opacity="0.2">
<path opacity="0.2" d="M70.6398 97.067L59.7422 106.909C58.3466 108.469 58.0797 110.743 59.0805 112.582C61.7938 117.58 68.2601 127.678 68.2601 127.678L71.4293 125.394C71.4293 125.394 67.6263 114.12 66.0695 111.762C65.9749 111.623 66.0083 111.439 66.1362 111.333L75.3547 103.721L70.6398 97.067Z" fill="black"/>
</g>
<path d="M68.2657 127.673V133.73L72.7248 130.699C72.7248 130.699 73.0194 125.583 71.4348 125.388L68.2657 127.673Z" fill="#FF8B7B"/>
<path opacity="0.2" d="M68.2657 127.673V133.73L72.7248 130.699C72.7248 130.699 73.0194 125.583 71.4348 125.388L68.2657 127.673Z" fill="black"/>
<path d="M93.4413 176.948C93.3524 179.639 93.0521 182.348 92.4405 184.939C89.2713 198.364 76.7447 217.623 76.7447 217.623L69.4333 214.876C69.4333 214.876 79.7582 187.006 80.948 179.907C81.9155 174.111 73.0028 152.94 70.4174 144.336C68.5492 138.116 71.1791 132.298 71.1791 132.298C71.1791 132.298 77.8956 133.212 85.8575 133.714L88.9878 148.158L90.4334 154.846C90.4334 154.846 91.9346 159.677 92.8242 166.231C92.8464 166.404 92.8687 166.565 92.8909 166.733C92.9465 167.167 93.0021 167.596 93.0466 168.014C93.3579 170.823 93.5414 173.871 93.4413 176.948Z" fill="#9DDBFF"/>
<path opacity="0.4" d="M93.4413 176.948C93.3524 179.639 93.0521 182.348 92.4405 184.939C89.2713 198.364 76.7447 217.623 76.7447 217.623L69.4333 214.876C69.4333 214.876 79.7582 187.006 80.948 179.907C81.9155 174.111 73.0028 152.94 70.4174 144.336C68.5492 138.116 71.1791 132.298 71.1791 132.298C71.1791 132.298 77.8956 133.212 85.8575 133.714L88.9878 148.158L90.4334 154.846C90.4334 154.846 91.9346 159.677 92.8242 166.231C92.8464 166.404 92.8687 166.565 92.8909 166.733C92.9465 167.167 93.0021 167.596 93.0466 168.014C93.3579 170.823 93.5414 173.871 93.4413 176.948Z" fill="white"/>
<path opacity="0.4" d="M93.4414 176.948C92.4072 173.381 88.1649 162.798 82.6049 152.299C76.9949 141.705 83.1609 139.169 83.1609 139.169C85.5128 140.028 87.4477 143.566 88.9878 148.158C90.8059 153.581 92.0736 160.497 92.8242 166.231C92.8464 166.404 92.8687 166.565 92.8909 166.733C92.9465 167.167 93.0021 167.596 93.0466 168.014C93.358 170.823 93.5414 173.871 93.4414 176.948Z" fill="#263238"/>
<path d="M98.5399 135.609L79.5525 134.165C79.5525 134.165 78.257 138.557 78.257 141.727C78.2514 153.319 86.4191 152.756 88.9378 158.557C94.52 171.419 99.5685 179.31 100.186 182.927C100.669 185.769 100.725 221.09 100.725 221.09H108.131C108.131 221.09 114.625 193.449 113.413 182.219C112.195 170.99 98.5399 135.609 98.5399 135.609Z" fill="#9DDBFF"/>
<g opacity="0.4">
<path opacity="0.4" d="M98.5399 135.609L79.5525 134.165C79.5525 134.165 78.257 138.557 78.257 141.727C78.2514 153.319 86.4191 152.756 88.9378 158.557C94.52 171.419 99.5685 179.31 100.186 182.927C100.669 185.769 100.725 221.09 100.725 221.09H108.131C108.131 221.09 114.625 193.449 113.413 182.219C112.195 170.99 98.5399 135.609 98.5399 135.609Z" fill="white"/>
</g>
<path d="M124.144 97.8973L135.175 103.448C135.23 103.476 135.28 103.515 135.325 103.565L136.042 104.384L135.019 104.356C134.952 104.356 134.886 104.339 134.824 104.312L123.604 99.0565C123.365 98.945 123.26 98.672 123.354 98.4268L123.465 98.1537C123.571 97.8862 123.888 97.7636 124.144 97.8973Z" fill="#9DDBFF"/>
<path d="M126.134 102.606L129.681 100.689L129.098 105.816C129.098 105.816 126.184 107.527 124.422 105.738L126.134 102.606Z" fill="#FF8B7B"/>
<path d="M133.668 102.751L133.39 104.384C133.301 104.908 132.884 105.309 132.361 105.382L129.098 105.816L129.681 100.689L132.734 101.364C133.362 101.503 133.774 102.11 133.668 102.751Z" fill="#FF8B7B"/>
<path d="M99.1682 102.417C99.1682 102.417 102.054 116.951 108.681 119.364C114.642 121.532 126.618 106.552 126.618 106.552L126.14 102.612L111.122 112.375L105.078 97.0559C105.078 97.0503 102.376 99.1902 99.1682 102.417Z" fill="#FF8B7B"/>
<path d="M71.5071 227.058C71.0623 226.724 70.6509 226.345 70.2784 225.932C70.2395 225.893 70.2283 225.832 70.2617 225.788C70.2839 225.743 70.3395 225.715 70.3896 225.726C70.662 225.771 73.025 226.144 73.3253 226.807C73.3864 226.935 73.3697 227.08 73.2919 227.197C73.1751 227.398 72.975 227.526 72.7415 227.549C72.2855 227.532 71.8519 227.359 71.5071 227.058ZM70.7176 226.033C71.5461 226.874 72.28 227.337 72.7025 227.314C72.8526 227.303 72.9917 227.214 73.0639 227.08C73.0973 227.036 73.1029 226.98 73.0806 226.93C72.9249 226.551 71.6739 226.211 70.7176 226.033Z" fill="#9DDBFF"/>
<path d="M70.2895 225.955C70.2673 225.938 70.2561 225.916 70.245 225.893C70.2339 225.849 70.245 225.804 70.2728 225.771C70.3229 225.693 71.7907 224.099 72.7526 224.784L72.8415 224.84C73.0973 225.063 73.0751 225.264 73.0139 225.386C72.7415 225.927 71.0401 226.1 70.3507 225.96L70.2895 225.955ZM72.608 224.991C71.9909 224.539 71.029 225.392 70.6287 225.76C71.3904 225.826 72.6136 225.609 72.7804 225.286C72.7804 225.286 72.8415 225.186 72.6692 225.035L72.608 224.991Z" fill="#9DDBFF"/>
<path d="M64.7517 223.28L62.2664 227.716C62.0273 228.111 62.1997 228.624 62.6 228.858C63.9511 229.649 65.7692 230.764 66.5587 231.121C70.6287 232.954 73.0528 232.469 75.3547 232.414C76.1442 232.397 76.6557 231.544 76.4333 230.781L76.3332 230.435C76.2498 230.145 76.0274 229.911 75.7383 229.833C72.3801 228.947 70.4619 225.253 70.4619 225.253L65.8026 222.973C65.4245 222.789 64.9686 222.923 64.7517 223.28Z" fill="#263238"/>
<path d="M108.053 228.669C107.53 228.474 107.03 228.234 106.552 227.95C106.502 227.928 106.48 227.872 106.491 227.816C106.502 227.766 106.541 227.727 106.596 227.716C106.869 227.677 109.237 227.354 109.715 227.905C109.81 228.011 109.838 228.156 109.799 228.29C109.743 228.513 109.588 228.697 109.376 228.78C108.932 228.892 108.464 228.853 108.053 228.669ZM106.997 227.911C108.031 228.474 108.87 228.708 109.271 228.563C109.415 228.507 109.515 228.379 109.549 228.234C109.565 228.184 109.554 228.128 109.521 228.089C109.26 227.766 107.964 227.805 106.997 227.911Z" fill="#9DDBFF"/>
<path d="M106.446 228.061C106.424 228.05 106.402 228.033 106.385 228.017C106.363 227.978 106.357 227.933 106.374 227.894C106.402 227.805 107.347 225.854 108.464 226.233L108.565 226.261C108.87 226.401 108.909 226.596 108.887 226.735C108.781 227.331 107.202 227.989 106.502 228.056L106.446 228.061ZM108.387 226.467C107.664 226.217 106.991 227.309 106.713 227.777C107.464 227.621 108.57 227.058 108.637 226.701C108.637 226.701 108.67 226.59 108.459 226.495L108.387 226.467Z" fill="#9DDBFF"/>
<path d="M100.141 228.841C100.074 229.789 100.108 231.221 100.141 232.742C100.158 233.478 100.597 234.698 101.264 234.955C102.298 235.35 103.978 235.228 105.879 234.916C108.364 234.514 112.49 232.369 114.163 231.461C114.803 231.11 115.114 230.29 114.792 229.622C114.714 229.466 114.642 229.332 114.586 229.226C114.486 229.053 114.308 228.958 114.113 228.964C111.839 229.031 111.511 228.931 109.387 228.931C107.258 228.931 106.357 227.431 106.357 227.431C106.357 227.431 103.8 228.223 101.815 227.81C99.8409 227.404 100.141 228.841 100.141 228.841Z" fill="#263238"/>
<path d="M81.0537 88.8471C78.9131 89.7555 76.8392 90.8087 74.8376 92.0013C72.9305 93.1382 71.0679 94.4311 69.6946 96.1809C69.361 96.6044 69.0441 97.1116 69.1108 97.6521C69.1497 97.9754 69.3221 98.2651 69.5 98.5382C71.1902 101.174 73.392 103.476 75.944 105.281C76.5556 101.47 77.8789 97.7747 79.8194 94.4422C80.7534 92.8372 81.8654 91.2323 82.0545 89.3821L81.0537 88.8471Z" fill="#9DDBFF"/>
<path d="M109.198 77.8408C109.154 79.0613 109.271 80.2817 109.543 81.4687C108.72 81.7474 107.831 81.0285 107.831 81.0285L109.198 77.8408Z" fill="#A02724"/>
<path d="M108.565 81.0341C108.42 81.0341 108.281 81.0118 108.148 80.9728C107.152 80.6774 106.652 79.3678 107.041 78.0582C107.43 76.743 108.553 75.9183 109.554 76.2136C110.06 76.3641 110.449 76.7653 110.655 77.3449C110.844 77.8799 110.844 78.5152 110.661 79.1282C110.333 80.2316 109.454 81.0341 108.565 81.0341ZM109.132 76.4254C108.376 76.4254 107.603 77.122 107.308 78.1307C106.963 79.2954 107.375 80.449 108.225 80.6997C108.337 80.7332 108.448 80.7499 108.565 80.7499C109.332 80.7499 110.099 80.031 110.394 79.0446C110.561 78.4873 110.555 77.9133 110.388 77.4285C110.216 76.9381 109.893 76.5982 109.471 76.47C109.36 76.4421 109.248 76.4254 109.132 76.4254Z" fill="black"/>
<path d="M95.2428 77.0997L97.0887 80.8836L99.613 86.044C99.157 86.4007 98.7678 86.8409 98.4732 87.3425C97.7615 88.418 97.1944 89.1926 99.385 91.1654C99.8687 91.5722 100.074 92.2242 99.9076 92.8372C99.6686 93.5673 98.8512 94.1803 96.2992 93.4112C93.8528 92.6143 91.7289 91.0595 90.2277 88.9697C89.4771 87.9722 89.7773 87.3759 90.7003 86.5734C93.3858 84.322 94.5978 80.3486 95.2428 77.0997Z" fill="#FF8B7B"/>
<path d="M107.603 82.94C106.285 84.9796 104.144 86.1332 101.976 86.3059C101.203 86.3672 100.43 86.3059 99.6852 86.1109C97.9672 85.6595 96.4326 84.5171 95.5263 82.6279C93.9362 79.3009 95.0148 76.4644 96.4215 71.499C96.6995 70.4903 97.1943 69.5541 97.8671 68.7572C100.43 65.7367 104.945 65.3689 107.964 67.9324C112.062 71.4656 110.188 78.9164 107.603 82.94Z" fill="#FF8B7B"/>
<path opacity="0.2" d="M101.976 86.306C101.203 86.3673 100.43 86.306 99.6852 86.1109L99.6129 86.0496L100.369 85.2861C100.369 85.2861 100.408 86.1555 101.976 86.306Z" fill="black"/>
<path d="M99.7631 65.2185C99.4461 64.4215 98.6344 63.9311 97.7837 64.0259C98.3897 64.4271 98.8512 65.0123 99.0959 65.6977L99.7631 65.2185Z" fill="#263238"/>
<path d="M115.014 73.3548C113.713 74.7312 110.355 74.1517 110.355 74.1517L108.937 72.7585C108.62 72.4798 107.964 72.1733 107.503 73.7839L106.874 75.1548C106.874 75.1548 105.234 77.8353 102.799 79.1338C102.454 79.3177 101.487 79.9864 101.487 79.9864C99.7909 81.0898 97.628 81.1734 95.8488 80.2037L95.1983 79.9474C94.5311 79.6855 94.0752 79.0557 94.0307 78.3369C93.8695 75.5839 93.7305 68.8241 95.96 66.6172C98.0117 64.5887 99.1181 65.2296 99.8353 65.029C100.269 64.912 102.354 63.5132 105.301 64.5274C110.8 66.4222 110.588 69.6767 111.695 69.5151C112.735 69.3591 113.368 68.668 113.446 68.5844C113.352 68.7461 112.167 70.6464 112.729 70.7077C113.313 70.7746 114.786 69.4594 114.658 69.8327C114.53 70.2061 112.912 71.8891 113.897 72.3015C114.781 72.6749 116.237 71.3486 116.237 71.3486C116.237 71.3486 116.321 71.9839 115.014 73.3548Z" fill="#263238"/>
<path d="M104.406 74.2606L104.253 74.4937L110.908 78.8646L111.06 78.6315L104.406 74.2606Z" fill="black"/>
<path d="M101.715 76.0799C101.592 77.2334 101.904 78.3982 102.582 79.34C103.466 80.5381 104.995 79.7301 105.434 78.3257C105.823 77.0663 105.551 75.0712 104.339 74.3802C103.116 73.6891 101.87 74.6532 101.715 76.0799Z" fill="#FF8B7B"/>
<path d="M81.0537 88.8471C81.0537 88.8471 75.7772 95.0887 74.0648 109.578C72.3578 124.067 70.9678 133.775 70.9678 133.775L98.779 135.759C98.779 135.759 97.7226 126.447 98.779 119.297C99.8354 112.147 106.93 95.1221 105.362 92.3747C104.567 90.9815 98.551 88.3121 92.8298 87.9109C87.3087 87.5264 81.0537 88.8471 81.0537 88.8471Z" fill="#263238"/>
<path d="M98.3898 91.8509C96.9219 93.1716 96.0879 95.0552 95.4986 96.9444C95.2539 97.7302 95.0371 98.5438 95.0927 99.363C95.1594 100.427 95.6654 101.408 96.1658 102.356C97.0331 104.005 97.9005 105.66 98.7678 107.31C101.959 107.198 105.128 106.502 108.075 105.265C108.442 105.109 108.837 104.919 108.998 104.551C109.282 103.883 107.542 98.594 107.308 96.5097C106.813 92.0626 102.315 88.3177 98.3898 91.8509Z" fill="#9DDBFF"/>
<path d="M87.2864 87.9889L89.5883 86.1945C90.1332 85.771 90.8059 85.5592 91.4954 85.5982C93.0966 85.6818 96.2825 85.6818 98.9847 86.7295C101.437 87.6824 100.92 89.7667 100.92 89.7667C100.92 89.7667 96.2269 87.844 87.2864 87.9889Z" fill="#9DDBFF"/>
<path d="M71.3626 130.961C69.8225 132.672 69.8225 137.944 69.8225 137.944C69.8225 137.944 84.1506 139.359 90.5502 139.359C94.5645 139.359 97.9116 138.863 97.9116 138.863L98.3342 135.753L99.246 138.64L100.519 138.35L98.501 132.343L71.3626 130.961Z" fill="#9DDBFF"/>
<path d="M78.4349 217.64C78.4738 217.646 76.9059 220.432 76.9059 220.432L67.9821 216.91L68.7327 214.196L78.4349 217.64Z" fill="#9DDBFF"/>
<path d="M109.888 218.058C109.927 218.047 109.349 221.073 109.349 221.073H99.852L99.6018 218.27L109.888 218.058Z" fill="#9DDBFF"/>
</svg>
